<svg xmlns="http://www.w3.org/2000/svg" viewBox="0 0 500 500"><g id="freepik--Floor--inject-8"><ellipse id="freepik--floor--inject-8" cx="249.86" cy="362.68" rx="214.61" ry="118.82" style="fill:#f5f5f5"></ellipse></g><g id="freepik--Shadows--inject-8"><path id="freepik--Shadow--inject-8" d="M108.7,349.21c-32,18.5-32,48.49,0,67s84,18.5,116,0,32-48.48,0-67S140.73,330.72,108.7,349.21Z" style="fill:#e0e0e0"></path></g><g id="freepik--Character--inject-8"><g id="freepik--character--inject-8"><path d="M185.09,102.85c11.15-.43,15.53.26,19.52,5.11,4.34,5.26,19.22,53.58,19.22,53.58l39.69,13.75-14.76,9.38s-24.28-5-31.45-6.38c-5.64-1.09-7.49-1.15-10.33-8.36-3.93-10-20.71-51.1-20.71-51.1Z" style="fill:#ffa8a7"></path><path d="M186.43,102.59c6.32-.55,11.21-.31,14.79,1.64s5.09,4.34,7.52,10.43,15.64,45.93,15.64,45.93l19.38,6.9-4,15.34s-21.07-3.67-25.42-4.65-5.53-1.93-8-7.58S189.51,129,189.51,129Z" style="fill:#455a64"></path><path d="M143.87,407.82c-.41,1.65-1.29,6.34-10,6.34s-13.7-3.57-15.41-8-.73-7.7-.57-11.56-2.71-6.32-3.35-8.4c-.93-3.07,1.63-7.3,1.63-7.3Z" style="fill:#263238"></path><path d="M225.5,383.8c.32.23.51,2.94-.4,4.19-.64.85-6.47,5.09-13.68,4.21A33.17,33.17,0,0,1,196.59,387c-4.22-2.48-7.12-2.84-11.41-2.83s-7.22-.79-7.57-1.87c-.63-1.89-.67-3.1.24-3.07Z" style="fill:#263238"></path><path d="M119.07,372.56c0,7.94,15.2,9.39,14.82,3l5.3-18.55L122,355.19Z" style="fill:#ffa8a7"></path><path d="M143.79,403.85c-.56-1.51-2.49-3.83-3.29-5.23a42.69,42.69,0,0,1-5.76-23.89c0-.46.09-1.36-.33-1.7s-.94,0-1.46.13c0,0,0,0,0,0v0a9.08,9.08,0,0,1-2.74.33c-3.07-.08-6.32-1.27-7.09-1.27-.6,0-1,1.8-1.26,3.78-1-.83-1.15-2.23-2-3.15-.46-.5-.69-.54-.58-1.24.07-.46.16-.86.22-1.32-.74-.34-1.8,2.55-2.76,4.74-1.1,2.53-2.43,5.37-1.76,8.19a23.07,23.07,0,0,0,1.85,4.46,17.36,17.36,0,0,1,2.06,8c0,1.21-.31,2.42-.3,3.63a10.67,10.67,0,0,0,6.26,9.71c5,2.34,12.85,3.16,17.94.15C144.53,408.12,144.35,405.36,143.79,403.85Z" style="fill:#263238"></path><path d="M180.88,366.1c4.3,3.08,8.27,3.46,13.31.93L196.74,340H178.15Z" style="fill:#ffa8a7"></path><path d="M140.18,192.62c-3.43,31.49-8,94-8,94S127,296.12,125,311.31c-2.49,18.76-5.41,54.44-5.41,54.44s8.78,5.71,17.31,2.95c0,0,19.52-56.33,23.42-74.8,3.4-16.12,9.42-49.22,9.42-49.22l7.52,45.05a70.62,70.62,0,0,0-2.43,21.95c.36,8.68,3.78,41.84,3.78,41.84,2.83,2.67,13.69,3,17.31.73,0,0,5.21-55.23,6-64.34,1-12,2.86-98,2.86-98Z" style="fill:#263238"></path><path d="M169.77,244.68l4.2-19.37s9.39-2.14,16.1-7.52c0,0-2.46,6.18-12.75,10.91L173,246.84l3.69,39.81Z"></path><path d="M221.81,378.38c-7.11-2.66-14-5.77-18.41-8.85a35.12,35.12,0,0,1-3-2.27c-1.81-1.82-2.92-5.78-3.7-6.23-.26-.15-.62,0-1.14.35a1.29,1.29,0,0,0-.83-.5l-.1,1.1a11.88,11.88,0,0,1-4.87,1.77c-4.36.56-4.53-.32-4.67,1.1a9.6,9.6,0,0,0,0,1.59c-2.32-.3-4.17-1-4.3-1.85l-.39-2.79c-2.31-.12-2.31,4-2.89,8.66-.47,3.77-1.27,6.52-.14,9.23,3.6,2.91,9.71,1.94,13.23,2.39,5,.63,7.43,4.21,14.4,6.33,11.24,3.43,18.08-1.26,20.09-3.27C226.43,382.63,225.69,379.83,221.81,378.38Z" style="fill:#263238"></path><path d="M166.93,103.52c-8.79,1.34-15.78,1.69-21.93,2.69-4.7.76-6.12,8.81-6.43,14-1,16.93,2.87,49.38,2.87,49.38l-2.36,28.93c7.89,8.44,45.7,12.13,65.86-.24,0,0,.54-57.54,0-67.24-.95-17.08-10.82-28-17.12-28.47C187.82,102.59,182.06,101.22,166.93,103.52Z" style="fill:#37474f"></path><path d="M182.67,205.48c.89-.11,1.77-.25,2.64-.39.27-11.4.56-33.81.26-44.62-.52-18.38-2.91-37.91-5.65-43.94a215.14,215.14,0,0,1,3.47,42.34C183.26,173.6,182.88,194.84,182.67,205.48Z" style="fill:#263238"></path><path d="M101.86,162.25c21-40,26.15-48.71,32.3-53.12,3.38-2.42,11.73-3.11,11.73-3.11,3.48,3.75,5.91,17.47-1.56,29.68,0,0-17.65,24-22.47,32,5.06,9.56,12.57,21.39,17.22,27.1a6.37,6.37,0,0,0,4.06,2.24c4.08.39,5.94,1.68,9.39,3,2.69,1,4.53.71,4.51,1.44,0,.94-.91,2.86-3.56,3.29a17.05,17.05,0,0,1-4.81-.17,29.7,29.7,0,0,0,7.68,5.06c6.71,3.17,8.76,7.84-1.13,10.82-3.95,1.2-11.18,1-20.95-8.49-3.31-3.21-9.52-9.84-12.79-13.6-8.56-9.85-15.64-18.59-20.19-24.53C98.46,170.11,99.94,165.91,101.86,162.25Z" style="fill:#ffa8a7"></path><path d="M131.5,183.57l5.69,8.77s-9.39,2.3-12.54,9.54l-8.19-8.72s.52-3.51,5.81-7S131.5,183.57,131.5,183.57Z" style="fill:#37474f"></path><path d="M148.92,105.66c-6.94-.06-12.17.14-16.27,3.23s-10,13.29-14.67,21.84-16.56,29.58-18.27,34.45S99.15,172.45,102,176s14.51,17.14,14.51,17.14c3.65-4.54,8.59-8.61,15-9.59l-8.67-15.94,20.31-27.52s5.65-7,6.89-18.76S148.92,105.66,148.92,105.66Z" style="fill:#455a64"></path><path d="M158.42,52.62s-4.82.67-6.59,4.31c-1.54,3.16-1,10.79,1.07,19.11s4,13.33,5.19,15.63a6.35,6.35,0,0,0,3.68,3l-.24-9.87-.36-6.88s4.42-6,4.9-11c.62-6.36-.71-9-.71-9Z" style="fill:#263238"></path><path d="M157.29,53.83l-6.8-3.11a4,4,0,0,1,5.15-2.11A3.82,3.82,0,0,1,157.29,53.83Z" style="fill:#263238"></path><path d="M166.21,62.17a18.43,18.43,0,1,0,18.37-18.49A18.43,18.43,0,0,0,166.21,62.17Z" style="fill:#263238"></path><path d="M161.43,76.77c-1.66,1.44-3-2.28-4.4-3.73s-5.95-3.43-8.2,1.35,2.08,11.49,5.48,13.07c5,2.31,7.22-2.71,7.22-2.71l.53,20.76c4.79,7.26,16,4.49,17.64,8.8,1-3.83,6-3.84,2.42-8l0-6.76s5.58.83,8.31.4c4.52-.72,6.89-4.13,8.25-9,2.18-7.89,3.06-21.14,0-36.45-5.08-3.93-22.67-3.28-33.31,3.47C166.14,71.52,163.09,75.34,161.43,76.77Z" style="fill:#ffa8a7"></path><path d="M201.2,43.62a.85.85,0,0,0-.66-.51,1.15,1.15,0,0,0-.62.27,28.54,28.54,0,0,1-4,2.72,14.34,14.34,0,0,0,.07-5.5c-.2-1.12-.51-3.71-1.89-4-.83-.17-1.54.52-2.16,1.09-5.54,5.19-12.77,2.79-19.44,3-5.58.18-12.31,2.45-14.83,7.88-1.16,2.48-1.36,5.09.92,6.81a15.66,15.66,0,0,0,6.81,2.54c11.11,1.93,27,6.51,35.26-3.86a8.19,8.19,0,0,0,1.73-5.43,11.37,11.37,0,0,0-1.12-5Z" style="fill:#263238"></path><path d="M182.08,99.56s-10.13-2-13.67-3.88a11.58,11.58,0,0,1-4.9-4.82,16,16,0,0,0,2.79,5.7c2.6,3.3,15.79,5.69,15.79,5.69Z" style="fill:#f28f8f"></path><path d="M179.45,74.34a2,2,0,1,1-2-2.11A2.05,2.05,0,0,1,179.45,74.34Z" style="fill:#263238"></path><path d="M177.28,66.69,173,69.1a2.6,2.6,0,0,1,1-3.46A2.43,2.43,0,0,1,177.28,66.69Z" style="fill:#263238"></path><path d="M180.45,87.23l6.47,2.4a3.4,3.4,0,0,1-4.39,2.16A3.61,3.61,0,0,1,180.45,87.23Z" style="fill:#f28f8f"></path><path d="M197.32,68.82l-4-3a2.4,2.4,0,0,1,3.44-.54A2.63,2.63,0,0,1,197.32,68.82Z" style="fill:#263238"></path><path d="M196.12,73.7a2,2,0,1,1-2-2.1A2.06,2.06,0,0,1,196.12,73.7Z" style="fill:#263238"></path><polygon points="185.98 71.82 186.68 84 193.04 81.81 185.98 71.82" style="fill:#f28f8f"></polygon><path d="M235.35,141c-7.22.69-20.91-1.68-28.82-6.75-10.38-6.64-18.71-23.4-21.89-29.33,0,0-2.65-.16-2,.8s9.24,21.49,23,30.18c7,4.41,19.92,6.73,29.4,6.07Z" style="fill:#263238"></path><path d="M235.35,141c-7.22.69-20.91-1.68-28.82-6.75-10.38-6.64-18.71-23.4-21.89-29.33,0,0-2.65-.16-2,.8s9.24,21.49,23,30.18c7,4.41,19.92,6.73,29.4,6.07Z" style="opacity:0.4"></path><path d="M235.35,141s-26,4.25-42.31-1.41c-15.4-5.37-27.43-19.95-31-34.09L159,106s7.54,25.47,29.72,34.24c20.48,8.11,45,1.82,46.62,1.66Z" style="fill:#263238"></path><path d="M235.35,141s-26,4.25-42.31-1.41c-15.4-5.37-27.43-19.95-31-34.09L159,106s7.54,25.47,29.72,34.24c20.48,8.11,45,1.82,46.62,1.66Z" style="opacity:0.30000000000000004"></path><path d="M238,140.29s-1.92.29-2.69.48c-1.07.27-1.51,1.53-.41,1.42s1.77-.26,2.75-.42S239.52,140.05,238,140.29Z" style="fill:#263238"></path><path d="M237.57,141.12s2.31.27,2.32.25.62-.78.62-.78l-2-.11Z" style="fill:#263238"></path><path d="M237.57,141.12s2.31.27,2.32.25.62-.78.62-.78l-2-.11Z" style="opacity:0.4"></path><path d="M239,141.31l5.39,1.33,1.32-.76A20,20,0,0,0,239,141.31Z" style="fill:#263238"></path><polygon points="238.98 141.31 238.98 141.62 244 142.86 244.37 142.64 238.98 141.31" style="fill:#37474f"></polygon><path d="M260.91,136.38s0-.1,0-.14,0,0,0-.05a.64.64,0,0,0-.1-.13.35.35,0,0,0-.13-.11l-.05,0-2-1.14a.74.74,0,0,0-.76.08l-18.16,10.47a2.42,2.42,0,0,0-1.08,1.89V187a.74.74,0,0,0,.32.7l2,1.17,0,0,.11,0a.49.49,0,0,0,.24,0,1,1,0,0,0,.37-.13l18.16-10.48a2.37,2.37,0,0,0,1.08-1.87V136.65A1.12,1.12,0,0,0,260.91,136.38Zm-9.49,7.27L247.34,146a2.71,2.71,0,0,1,1.15-1.49l4.08-2.35A2.73,2.73,0,0,1,251.42,143.65Z" style="fill:#263238"></path><path d="M260.91,136.38s0-.1,0-.14,0,0,0-.05a.64.64,0,0,0-.1-.13.35.35,0,0,0-.13-.11l-.05,0-2-1.14a.74.74,0,0,0-.76.08l-18.16,10.47a2.42,2.42,0,0,0-1.08,1.89V187a.74.74,0,0,0,.32.7l2,1.17,0,0,.11,0a.49.49,0,0,0,.24,0,1,1,0,0,0,.37-.13l18.16-10.48a2.37,2.37,0,0,0,1.08-1.87V136.65A1.12,1.12,0,0,0,260.91,136.38Zm-9.49,7.27L247.34,146a2.71,2.71,0,0,1,1.15-1.49l4.08-2.35A2.73,2.73,0,0,1,251.42,143.65Z" style="opacity:0.15"></path><path d="M241,188.84l0,0-2-1.17a.74.74,0,0,1-.32-.7V147.22a2.17,2.17,0,0,1,.32-1.07l2,1.17a2.17,2.17,0,0,0-.32,1.07v39.73A.73.73,0,0,0,241,188.84Z" style="fill:#263238"></path><path d="M241,188.84l0,0-2-1.17a.74.74,0,0,1-.32-.7V147.22a2.17,2.17,0,0,1,.32-1.07l2,1.17a2.17,2.17,0,0,0-.32,1.07v39.73A.73.73,0,0,0,241,188.84Z" style="opacity:0.30000000000000004"></path><path d="M260.91,136.38s0-.1,0-.14,0,0,0-.05a.64.64,0,0,0-.1-.13.35.35,0,0,0-.13-.11l-.05,0a.8.8,0,0,0-.71.11l-8.44,4.87-4.61,2.66-5.11,2.95a2.43,2.43,0,0,0-1.08,1.88v39.73a.73.73,0,0,0,.36.72l.11,0a.49.49,0,0,0,.24,0,1,1,0,0,0,.37-.13l18.16-10.48a2.37,2.37,0,0,0,1.08-1.87V136.65A1.12,1.12,0,0,0,260.91,136.38Zm-12.42,8.15,4.08-2.35a2.73,2.73,0,0,1-1.15,1.47L247.34,146A2.71,2.71,0,0,1,248.49,144.53Z" style="fill:#263238"></path><path d="M254.38,142.51a2.74,2.74,0,0,1-1.27,2.11l-4.62,2.67c-.7.4-1.27.12-1.27-.64a1.8,1.8,0,0,1,.12-.63l4.08-2.37a2.73,2.73,0,0,0,1.15-1.47l.54-.31C253.81,141.46,254.38,141.75,254.38,142.51Z" style="opacity:0.2"></path><path d="M244.32,152l12.92-7.46c.23-.13.42,0,.42.24v16.45a.93.93,0,0,1-.42.73l-12.92,7.45c-.23.13-.42,0-.42-.25V152.72A.94.94,0,0,1,244.32,152Z" style="fill:#fafafa"></path><path d="M257,162.1l-2,1.17-.24.15c-.81-1.13-1.53-2.17-1.53-2.17a18.32,18.32,0,0,1-.55-1.86h0a11.52,11.52,0,0,1-.27-1.47h0a2.81,2.81,0,0,1,1.59,0,2.75,2.75,0,0,1,1.21,1.15C255.47,159.62,256.34,161.05,257,162.1Z" style="fill:#455a64"></path><path d="M254.94,163.27l-.24.15-2.35,1.35L252,165l-4.7,2.71-.19.11,0-.81.23-3.75c0-.73.38-3.61.38-3.61l1.06-.42.65-.26.21-.08.08,0,1.78-.71.34-.1h0a.35.35,0,0,1,.11,0,2,2,0,0,1,.42-.07h0c1.32-.1,2,.89,2.35,2.48A26.65,26.65,0,0,1,254.94,163.27Z" style="fill:#37474f"></path><path d="M252.35,164.77,252,165a14.75,14.75,0,0,0-.36-5A11.53,11.53,0,0,1,252.35,164.77Z" style="fill:#263238"></path><path d="M248.11,164.22s-.44,1.72-.82,3.47l-.19.11-2.66,1.53c.47-4.77.79-7.31,1.55-8.59a2.72,2.72,0,0,1,1.7-1.11C248.29,160.08,248.54,162.22,248.11,164.22Z" style="fill:#455a64"></path><path d="M248.94,151.33a1.48,1.48,0,0,0-.83.77,6,6,0,0,0,.14,2.76,11.22,11.22,0,0,0,.65,2.16.65.65,0,0,0,.47.34l0-1.43-.05-1a5.19,5.19,0,0,0,.62-1.7,2.77,2.77,0,0,0-.09-1.29Z" style="fill:#263238"></path><path d="M248.8,151.53l-.86-.3c.13-.32.42-.51.65-.42S248.92,151.21,248.8,151.53Z" style="fill:#263238"></path><path d="M249.93,152.54a2.05,2.05,0,0,0,2.32,2.27,3.13,3.13,0,0,0,2.32-3.1,2.05,2.05,0,0,0-2.33-2.26A3.11,3.11,0,0,0,249.93,152.54Z" style="fill:#263238"></path><path d="M249.32,154.77c-.21.25-.38-.26-.55-.44s-.75-.37-1,.38a1.52,1.52,0,0,0,.69,1.78c.62.22.91-.56.91-.56l.06,3.23c.61,1,2,0,2.22.68,0-.53.76-.71.31-1.23v-1a4,4,0,0,0,1.05-.13,1.84,1.84,0,0,0,1-1.49,13.9,13.9,0,0,0,0-5.31c-.63-.46-2.85,0-4.19,1.25C249.92,153.91,249.53,154.53,249.32,154.77Z" style="fill:#ffa8a7"></path><path d="M254.33,149.07s0-.07-.08-.06-.05,0-.08.05a4.15,4.15,0,0,1-.51.49,2.45,2.45,0,0,0,0-.81c0-.15-.06-.52-.24-.53s-.19.11-.27.21c-.7.87-1.61.68-2.45.86a2.56,2.56,0,0,0-1.87,1.48c-.14.39-.17.77.12,1a1.6,1.6,0,0,0,.86.22c1.4,0,3.41.34,4.44-1.35a1.54,1.54,0,0,0,.22-.83,1.72,1.72,0,0,0-.14-.69Z" style="fill:#263238"></path><path d="M251.92,157.63a8,8,0,0,1-1.72-.26,1.28,1.28,0,0,1-.62-.59,2.08,2.08,0,0,0,.36.76c.32.43,2,.48,2,.48Z" style="fill:#f28f8f"></path><path d="M251.59,154a.34.34,0,0,1-.25.35c-.14,0-.26-.09-.26-.26a.35.35,0,0,1,.26-.35C251.48,153.73,251.59,153.85,251.59,154Z" style="fill:#263238"></path><path d="M251.32,153l-.55.44a.45.45,0,0,1,.13-.52A.26.26,0,0,1,251.32,153Z" style="fill:#263238"></path><path d="M251.74,155.87l.71.18a.44.44,0,0,1-.48.36A.41.41,0,0,1,251.74,155.87Z" style="fill:#f28f8f"></path><path d="M253.76,152.76l-.5-.35a.31.31,0,0,1,.44-.16A.41.41,0,0,1,253.76,152.76Z" style="fill:#263238"></path><path d="M253.61,153.57a.34.34,0,0,1-.25.35c-.14,0-.26-.09-.26-.26a.35.35,0,0,1,.26-.35C253.5,153.29,253.61,153.4,253.61,153.57Z" style="fill:#263238"></path><polygon points="252.41 153.51 252.5 155.27 253.31 154.81 252.41 153.51" style="fill:#f28f8f"></polygon><path d="M249.38,157.91c-.17,0-.23.08-.36.41l-.28.72a1.86,1.86,0,0,0,.55,1.23A3.85,3.85,0,0,0,251,161s.1-.66.17-.94c.17-.61.42-.2.42-.2a.64.64,0,0,0-.13-.32,5.32,5.32,0,0,1-1.34-.3,1.84,1.84,0,0,1-.77-.94Z" style="fill:#455a64"></path><path d="M251.62,159.84a.84.84,0,0,1,.15-.54,1.58,1.58,0,0,0,.15-.8c0-.27,0-.87,0-.87.19,0,.33,0,.44.31a3.45,3.45,0,0,1,.24,1.64,1.94,1.94,0,0,1-.35,1s-.14-.54-.23-.78S251.76,159.48,251.62,159.84Z" style="fill:#455a64"></path><path d="M246.52,170.17l8.52-4.92c.31-.18.56,0,.56.33v.22a1.23,1.23,0,0,1-.56,1l-8.52,4.92c-.31.18-.56,0-.56-.33v-.22A1.23,1.23,0,0,1,246.52,170.17Z" style="fill:#455a64"></path><path d="M244.44,175.92l3-1.76c.13-.07.23,0,.23.12a.51.51,0,0,1-.23.39l-3,1.76c-.13.07-.23,0-.23-.12A.51.51,0,0,1,244.44,175.92Z" style="fill:#455a64"></path><path d="M249.7,172.89l7.42-4.29c.13-.07.23,0,.23.12a.49.49,0,0,1-.23.39l-7.42,4.28c-.13.08-.23,0-.23-.12A.47.47,0,0,1,249.7,172.89Z" style="fill:#455a64"></path><path d="M244.44,176.93l3-1.76c.13-.07.23,0,.23.12a.49.49,0,0,1-.23.39l-3,1.76c-.13.07-.23,0-.23-.12A.51.51,0,0,1,244.44,176.93Z" style="fill:#455a64"></path><path d="M249.7,173.9l7.42-4.28c.13-.08.23,0,.23.11a.49.49,0,0,1-.23.39l-7.42,4.28c-.13.08-.23,0-.23-.11A.49.49,0,0,1,249.7,173.9Z" style="fill:#455a64"></path><path d="M244.44,177.94l3-1.75c.13-.08.23,0,.23.11a.49.49,0,0,1-.23.39l-3,1.76c-.13.07-.23,0-.23-.12A.51.51,0,0,1,244.44,177.94Z" style="fill:#455a64"></path><path d="M249.7,174.91l7.42-4.28c.13-.08.23,0,.23.12a.47.47,0,0,1-.23.38l-7.42,4.29c-.13.07-.23,0-.23-.12A.49.49,0,0,1,249.7,174.91Z" style="fill:#455a64"></path><path d="M244.44,179l3-1.76c.13-.08.23,0,.23.12a.49.49,0,0,1-.23.38l-3,1.76c-.13.08-.23,0-.23-.12A.47.47,0,0,1,244.44,179Z" style="fill:#455a64"></path><path d="M249.7,175.92l7.42-4.28c.13-.08.23,0,.23.12a.51.51,0,0,1-.23.39l-7.42,4.28c-.13.07-.23,0-.23-.12A.51.51,0,0,1,249.7,175.92Z" style="fill:#455a64"></path><polygon points="245.52 180.76 245.52 183.92 246.44 183.4 246.44 180.23 245.52 180.76" style="fill:#455a64"></polygon><polygon points="248.26 179.17 248.26 182.34 249.18 181.81 249.18 178.65 248.26 179.17" style="fill:#455a64"></polygon><polygon points="251.92 177.06 251.92 180.23 252.84 179.7 252.84 176.53 251.92 177.06" style="fill:#455a64"></polygon><polygon points="255.12 175.22 255.12 178.38 256.04 177.85 256.04 174.69 255.12 175.22" style="fill:#455a64"></polygon><polygon points="246.89 179.97 246.89 183.13 247.35 182.87 247.35 179.7 246.89 179.97" style="fill:#455a64"></polygon><polygon points="253.29 176.27 253.29 179.44 253.75 179.17 253.75 176.01 253.29 176.27" style="fill:#455a64"></polygon><polygon points="250.55 177.85 250.55 181.02 251.01 180.76 251.01 177.59 250.55 177.85" style="fill:#455a64"></polygon><polygon points="247.81 179.44 247.81 182.6 248.04 182.47 248.04 179.31 247.81 179.44" style="fill:#455a64"></polygon><polygon points="251.32 177.41 251.32 180.58 251.55 180.44 251.55 177.28 251.32 177.41" style="fill:#455a64"></polygon><polygon points="249.87 178.25 249.87 181.42 250.09 181.28 250.09 178.12 249.87 178.25" style="fill:#455a64"></polygon><polygon points="254.44 175.61 254.44 178.78 254.66 178.65 254.66 175.48 254.44 175.61" style="fill:#455a64"></polygon><polygon points="249.41 178.51 249.41 181.68 249.64 181.55 249.64 178.38 249.41 178.51" style="fill:#455a64"></polygon><polygon points="253.98 175.88 253.98 179.04 254.21 178.91 254.21 175.74 253.98 175.88" style="fill:#455a64"></polygon><path d="M247.07,172.26l7.42-4.28c.13-.07.23,0,.23.12a.51.51,0,0,1-.23.39l-7.42,4.28c-.13.07-.23,0-.23-.12A.51.51,0,0,1,247.07,172.26Z" style="opacity:0.30000000000000004"></path><path d="M267.58,174.16h0c0-1.48.71-2.5,0-4.32s-3.75-5-5.2-7.71-2.49-3.41-3.51-2.16c-.87,1.07,1.25,6.35,1.89,7.86-1.13-.6-2.23-.85-3.13-.28-2,1.28,1.1,4.21,1.1,4.21s-2.39.51-2.53,2.17,3,4.72,3,4.72l-12.26,7.08a38.6,38.6,0,0,0,6.4,1.19,22.87,22.87,0,0,0,3.29,0c3.89-.37,5.42-1.09,7.64-3.26a19.88,19.88,0,0,0,3.67-5.77A4.24,4.24,0,0,0,267.58,174.16Z" style="fill:#ffa8a7"></path><path d="M260.54,180l-1.36-1.33-12.26,7.08a38.58,38.58,0,0,0,6.41,1.19Z" style="fill:#f28f8f"></path><path d="M249.17,144.47c.42-.24.29-1.61-.4-2-1.54-.89-6.49-1.46-9.8-1.45l2.83-1.63c3.3,0,8.25.56,9.79,1.45.69.4.82,1.77.4,2Z" style="fill:#455a64"></path><path d="M249.17,144.47c-.11.06-.23.05-.41-.07l.26-.15,0,0a1,1,0,0,0,.06-.37v-.11a1.3,1.3,0,0,0-.49-1c-1.5-.86-6.41-1.41-9.48-1.41H239V141c3.3,0,8.25.57,9.78,1.45C249.46,142.86,249.59,144.24,249.17,144.47Z" style="fill:#37474f"></path><path d="M243.37,139.9l-.2.11-1.08.58a1.18,1.18,0,0,1-.56.12l-.43,0H241c-.17,0-.18-.09,0-.17l1.12-.65a1.32,1.32,0,0,1,.55-.14l.71,0C243.5,139.76,243.51,139.83,243.37,139.9Z" style="opacity:0.35000000000000003"></path><path d="M243.17,140l-1.08.58a1.18,1.18,0,0,1-.56.12l-.43,0,1-.56a1.18,1.18,0,0,1,.55-.14Z" style="opacity:0.35000000000000003"></path><path d="M241.22,140.62l.12-.07c0-.17-.54-.28-1.53-.14a6.17,6.17,0,0,0-2.24.71,3.12,3.12,0,0,1,1.22-1.07c.91-.5,3.28-.43,3.43,0,0,.05.06.14,0,.2s-.34.23-.52.33A1.11,1.11,0,0,1,241.22,140.62Z" style="fill:#263238"></path><path d="M241.22,140.62l.12-.07c0-.17-.54-.28-1.53-.14a6.17,6.17,0,0,0-2.24.71,3.12,3.12,0,0,1,1.22-1.07c.91-.5,3.28-.43,3.43,0,0,.05.06.14,0,.2s-.34.23-.52.33A1.11,1.11,0,0,1,241.22,140.62Z" style="opacity:0.30000000000000004"></path><path d="M161.86,97.9c-1.28.09-1.81.25-2.85,2.34-1.19,2.38-2.22,4.56-2.22,4.56a14.34,14.34,0,0,0,4.34,9.23c4.3,4.36,13.84,7.32,13.84,7.32s.79-4.41,1.4-6.22c1.33-4,3.33-.82,3.33-.82a4.55,4.55,0,0,0-1.09-2.34c-.85-.76-6.3-1.23-10.66-4a16.17,16.17,0,0,1-6-7.55Z" style="fill:#455a64"></path><path d="M179.7,114.31a4.51,4.51,0,0,1,1.15-3.49c1.24-1.81,1.22-3.47,1.24-5.31s0-6,0-6c1.48.19,2.57.44,3.49,2.74s2.62,7,1.85,11.58-2.73,6.11-2.73,6.11-1.14-3.87-1.85-5.66S180.77,112.06,179.7,114.31Z" style="fill:#455a64"></path></g></g><g id="freepik--id-card--inject-8"><g id="freepik--ID--inject-8"><path d="M391.71,52c0-.22-.13-.45-.17-.63a.39.39,0,0,1-.09-.22,3.21,3.21,0,0,0-.45-.58,1.44,1.44,0,0,0-.58-.48l-.22-.14c-1.51-.89-8-4.62-8.8-5.07a3.31,3.31,0,0,0-3.38.36l-80.7,46.55a10.67,10.67,0,0,0-4.8,8.36V276.68a3.31,3.31,0,0,0,1.42,3.12c.85.48,8.14,4.71,9,5.2.09,0,.14.09.23.09a1.66,1.66,0,0,0,.49.17,2.11,2.11,0,0,0,1.06,0,4.23,4.23,0,0,0,1.65-.57L387,238.09a10.53,10.53,0,0,0,4.81-8.31V53.18A4.82,4.82,0,0,0,391.71,52Z" style="fill:#263238"></path><path d="M391.71,52c0-.22-.13-.45-.17-.63a.39.39,0,0,1-.09-.22,3.21,3.21,0,0,0-.45-.58,1.44,1.44,0,0,0-.58-.48l-.22-.14c-1.51-.89-8-4.62-8.8-5.07a3.31,3.31,0,0,0-3.38.36l-80.7,46.55a10.67,10.67,0,0,0-4.8,8.36V276.68a3.31,3.31,0,0,0,1.42,3.12c.85.48,8.14,4.71,9,5.2.09,0,.14.09.23.09a1.66,1.66,0,0,0,.49.17,2.11,2.11,0,0,0,1.06,0,4.23,4.23,0,0,0,1.65-.57L387,238.09a10.53,10.53,0,0,0,4.81-8.31V53.18A4.82,4.82,0,0,0,391.71,52Z" style="opacity:0.15"></path><path d="M303.15,285.09c-.09,0-.14,0-.23-.09-.84-.49-8.13-4.72-9-5.2a3.31,3.31,0,0,1-1.42-3.12V100.13a9.64,9.64,0,0,1,1.42-4.76l9,5.2a9.64,9.64,0,0,0-1.42,4.76V281.88C301.55,283.53,302.17,284.64,303.15,285.09Z" style="fill:#263238"></path><path d="M303.15,285.09c-.09,0-.14,0-.23-.09-.84-.49-8.13-4.72-9-5.2a3.31,3.31,0,0,1-1.42-3.12V100.13a9.64,9.64,0,0,1,1.42-4.76l9,5.2a9.64,9.64,0,0,0-1.42,4.76V281.88C301.55,283.53,302.17,284.64,303.15,285.09Z" style="opacity:0.30000000000000004"></path><path d="M391.71,52c0-.22-.13-.45-.17-.63a.39.39,0,0,1-.09-.22,3.21,3.21,0,0,0-.45-.58,1.44,1.44,0,0,0-.58-.48l-.22-.14a3.58,3.58,0,0,0-3.16.49L349.52,72.07,329.07,83.9,306.35,97a10.78,10.78,0,0,0-4.8,8.36V281.88c0,1.65.62,2.76,1.6,3.21a1.66,1.66,0,0,0,.49.17,2.11,2.11,0,0,0,1.06,0,4.23,4.23,0,0,0,1.65-.57L387,238.09a10.53,10.53,0,0,0,4.81-8.31V53.18A4.82,4.82,0,0,0,391.71,52Z" style="fill:#263238"></path><path d="M316.07,107.71l61.25-35.36c1.1-.63,2-.12,2,1.15v78a4.37,4.37,0,0,1-2,3.43l-61.25,35.3c-1.1.64-2,.12-2-1.14v-77.9A4.41,4.41,0,0,1,316.07,107.71Z" style="fill:#fafafa"></path><path d="M376,155.64l-9.63,5.55-1.15.67c-3.84-5.33-7.22-10.25-7.22-10.25a86.76,86.76,0,0,1-2.64-8.85h0a52.7,52.7,0,0,1-1.27-6.93h0a12.84,12.84,0,0,1,7.51,0c2.06.77,4.22,2.88,5.73,5.42S373,150.66,376,155.64Z" style="fill:#455a64"></path><path d="M366.41,161.19l-1.15.67-11.13,6.41-1.7,1L330.15,182.1l-.91.52-.1-3.84L330.26,161c0-3.43,1.78-17.08,1.78-17.08l5-2,3.05-1.22,1-.39.4-.16,8.44-3.38c.55-.19,1.08-.35,1.6-.49h0c.17-.06.36-.09.52-.13a11.51,11.51,0,0,1,2-.32h0c6.27-.49,9.61,4.22,11.16,11.74A124.44,124.44,0,0,1,366.41,161.19Z" style="fill:#37474f"></path><path d="M354.13,168.27l-1.7,1c.56-8.07.21-18.23-1.72-23.55C354.29,154.48,354.38,163.6,354.13,168.27Z" style="fill:#263238"></path><path d="M334.05,165.66s-2.1,8.17-3.9,16.44l-.91.52-12.61,7.27c2.27-22.6,3.77-34.66,7.34-40.7,1.94-3.31,4.92-4.14,8.07-5.27C334.89,146.05,336.07,156.21,334.05,165.66Z" style="fill:#455a64"></path><path d="M338,104.56a7,7,0,0,0-3.94,3.67c-.92,2.34-.59,7.54.64,13.06a51.21,51.21,0,0,0,3.09,10.23,3,3,0,0,0,2.2,1.65l-.14-6.78-.21-4.7s2.63-4.63,2.92-8.08c.38-4.46-.42-6.11-.42-6.11Z" style="fill:#263238"></path><path d="M337.32,105.51l-4.06-1.42c.58-1.5,1.95-2.4,3.07-2S337.9,104,337.32,105.51Z" style="fill:#263238"></path><path d="M342.65,110.33c0,7,5,11.81,11,10.72s11-7.67,11-14.69-5-11.81-11-10.72S342.63,103.31,342.65,110.33Z" style="fill:#263238"></path><path d="M339.79,120.9c-1,1.17-1.79-1.26-2.63-2.11s-3.55-1.74-4.89,1.8,1.24,7.7,3.27,8.43c3,1.07,4.31-2.63,4.31-2.63l.32,15.3c2.88,4.54,9.38.05,10.53,3.21.19-2.51,3.57-3.36,1.44-5.8l0-4.66a20.52,20.52,0,0,0,5-.6c2.71-1,4.12-3.58,4.93-7.11,1.3-5.66,1.83-14.89,0-25.13-3-2.17-13.54.13-19.89,5.9C342.6,116.78,340.78,119.73,339.79,120.9Z" style="fill:#ffa8a7"></path><path d="M363.54,93.86a.42.42,0,0,0-.39-.29.77.77,0,0,0-.38.26,22.56,22.56,0,0,1-2.4,2.29,11.83,11.83,0,0,0,0-3.8c-.12-.75-.31-2.5-1.14-2.54-.49,0-.92.52-1.28,1-3.31,4.16-7.63,3.26-11.61,4.11-3.33.71-7.36,3-8.86,7-.69,1.83-.81,3.65.55,4.6a7.42,7.42,0,0,0,4.07,1c6.63.16,16.15,1.64,21.06-6.37a7.13,7.13,0,0,0,1-3.93,7.74,7.74,0,0,0-.66-3.3Z" style="fill:#263238"></path><path d="M352.12,134.44s-6-.32-8.16-1.24a5.93,5.93,0,0,1-2.93-2.8A9.85,9.85,0,0,0,342.7,134c1.55,2,9.43,2.26,9.43,2.26Z" style="fill:#f28f8f"></path><path d="M350.55,117.32a1.66,1.66,0,0,1-1.2,1.67c-.67.12-1.21-.44-1.22-1.24a1.66,1.66,0,0,1,1.21-1.66C350,116,350.55,116.52,350.55,117.32Z" style="fill:#263238"></path><path d="M349.26,112.28l-2.59,2.12a2.16,2.16,0,0,1,.6-2.49A1.23,1.23,0,0,1,349.26,112.28Z" style="fill:#263238"></path><path d="M351.22,126.09l3.39.86a2.1,2.1,0,0,1-2.29,1.71A2,2,0,0,1,351.22,126.09Z" style="fill:#f28f8f"></path><path d="M360.84,111.36l-2.37-1.68a1.44,1.44,0,0,1,2-.73A1.89,1.89,0,0,1,360.84,111.36Z" style="fill:#263238"></path><path d="M360.12,115.2a1.68,1.68,0,0,1-1.21,1.67c-.66.11-1.21-.44-1.21-1.24a1.68,1.68,0,0,1,1.21-1.67C359.57,113.84,360.12,114.4,360.12,115.2Z" style="fill:#263238"></path><polygon points="354.45 114.9 354.87 123.23 358.67 121.05 354.45 114.9" style="fill:#f28f8f"></polygon><path d="M340,135.74c-.79.06-1.07.41-1.69,2-.71,1.79-1.33,3.42-1.33,3.42a8.83,8.83,0,0,0,2.6,5.83c2.56,2.49,8.25,3.36,8.25,3.36s.48-3.13.84-4.46c.8-2.89,2-1,2-1a2.79,2.79,0,0,0-.65-1.49c-.51-.42-3.76-.08-6.36-1.44a8.49,8.49,0,0,1-3.61-4.46Z" style="fill:#455a64"></path><path d="M350.7,144.9a4,4,0,0,1,.69-2.55,7.46,7.46,0,0,0,.73-3.81c0-1.27,0-4.1,0-4.1.88-.05,1.53,0,2.08,1.47a16.07,16.07,0,0,1,1.11,7.76,9,9,0,0,1-1.63,4.54s-.68-2.53-1.1-3.68S351.34,143.22,350.7,144.9Z" style="fill:#455a64"></path><path d="M301.55,130.73l-9-5.22L270.9,148.42a1.5,1.5,0,0,0,.32,2.32c.25.15,8.27,4.76,9,5.22a1.5,1.5,0,0,0,.91.19l20.4-2Z" style="fill:#263238"></path><path d="M301.55,130.73l-9-5.22L270.9,148.42a1.5,1.5,0,0,0,.32,2.32c.25.15,8.27,4.76,9,5.22a1.5,1.5,0,0,0,.91.19l20.4-2Z" style="opacity:0.15"></path><path d="M301.55,130.73l-21.63,22.91a1.49,1.49,0,0,0,1.24,2.51l20.4-2Z" style="fill:#263238"></path><path d="M326.51,192.87l40.37-23.31c1.47-.84,2.65-.16,2.65,1.54v1.05a5.86,5.86,0,0,1-2.65,4.6l-40.37,23.31c-1.46.84-2.65.16-2.65-1.54v-1.05A5.86,5.86,0,0,1,326.51,192.87Z" style="fill:#455a64"></path><path d="M316.66,221.13l14.4-8.34c.61-.35,1.1-.1,1.1.56a2.37,2.37,0,0,1-1.1,1.84l-14.4,8.34c-.61.35-1.11.1-1.11-.56A2.38,2.38,0,0,1,316.66,221.13Z" style="fill:#455a64"></path><path d="M341.57,206.75l35.16-20.3c.61-.35,1.11-.1,1.11.56a2.4,2.4,0,0,1-1.11,1.84l-35.16,20.29c-.61.36-1.1.11-1.1-.56A2.35,2.35,0,0,1,341.57,206.75Z" style="fill:#455a64"></path><path d="M316.66,225.92l14.4-8.33c.61-.36,1.1-.11,1.1.56a2.39,2.39,0,0,1-1.1,1.84l-14.4,8.33c-.61.36-1.11.11-1.11-.56A2.4,2.4,0,0,1,316.66,225.92Z" style="fill:#455a64"></path><path d="M341.57,211.54l35.16-20.3c.61-.35,1.11-.1,1.11.56a2.37,2.37,0,0,1-1.11,1.84l-35.16,20.3c-.61.35-1.1.1-1.1-.56A2.37,2.37,0,0,1,341.57,211.54Z" style="fill:#455a64"></path><path d="M316.66,230.72l14.4-8.34c.61-.35,1.1-.1,1.1.56a2.37,2.37,0,0,1-1.1,1.84l-14.4,8.34c-.61.35-1.11.1-1.11-.56A2.38,2.38,0,0,1,316.66,230.72Z" style="fill:#455a64"></path><path d="M341.57,216.34,376.73,196c.61-.35,1.11-.1,1.11.56a2.4,2.4,0,0,1-1.11,1.84l-35.16,20.29c-.61.36-1.1.11-1.1-.56A2.35,2.35,0,0,1,341.57,216.34Z" style="fill:#455a64"></path><path d="M316.66,235.52l14.4-8.34c.61-.35,1.1-.1,1.1.56a2.39,2.39,0,0,1-1.1,1.84l-14.4,8.33c-.61.36-1.11.11-1.11-.56A2.37,2.37,0,0,1,316.66,235.52Z" style="fill:#455a64"></path><path d="M341.57,221.13l35.16-20.3c.61-.35,1.11-.1,1.11.56a2.37,2.37,0,0,1-1.11,1.84l-35.16,20.3c-.61.35-1.1.1-1.1-.56A2.37,2.37,0,0,1,341.57,221.13Z" style="fill:#455a64"></path><polygon points="321.78 244.05 321.78 259.06 326.11 256.56 326.11 241.55 321.78 244.05" style="fill:#455a64"></polygon><polygon points="334.78 236.54 334.78 251.56 339.11 249.05 339.11 234.04 334.78 236.54" style="fill:#455a64"></polygon><polygon points="352.12 226.53 352.12 241.55 356.45 239.04 356.45 224.03 352.12 226.53" style="fill:#455a64"></polygon><polygon points="367.28 217.78 367.28 232.79 371.61 230.29 371.61 215.28 367.28 217.78" style="fill:#455a64"></polygon><polygon points="328.28 240.3 328.28 255.31 330.45 254.06 330.45 239.05 328.28 240.3" style="fill:#455a64"></polygon><polygon points="358.61 222.78 358.61 237.79 360.78 236.54 360.78 221.53 358.61 222.78" style="fill:#455a64"></polygon><polygon points="345.61 230.29 345.61 245.3 347.78 244.05 347.78 229.04 345.61 230.29" style="fill:#455a64"></polygon><polygon points="332.61 237.8 332.61 252.81 333.69 252.18 333.69 237.17 332.61 237.8" style="fill:#455a64"></polygon><polygon points="349.26 228.19 349.26 243.2 350.34 242.57 350.34 227.56 349.26 228.19" style="fill:#455a64"></polygon><polygon points="342.36 232.17 342.36 247.18 343.45 246.55 343.45 231.54 342.36 232.17" style="fill:#455a64"></polygon><polygon points="364.03 219.66 364.03 234.67 365.11 234.04 365.11 219.03 364.03 219.66" style="fill:#455a64"></polygon><polygon points="340.2 233.41 340.2 248.41 341.28 247.79 341.28 232.78 340.2 233.41" style="fill:#455a64"></polygon><polygon points="361.86 220.91 361.86 235.93 362.95 235.3 362.95 220.29 361.86 220.91" style="fill:#455a64"></polygon><path d="M329.12,202.79l35.16-20.3c.61-.35,1.1-.1,1.1.56a2.37,2.37,0,0,1-1.1,1.84l-35.16,20.3c-.61.35-1.11.1-1.11-.56A2.37,2.37,0,0,1,329.12,202.79Z" style="opacity:0.30000000000000004"></path></g></g></svg>